<?xml version="1.0" encoding="UTF-8"?><svg version="1.1" width="20px" height="20px" viewBox="0 0 20.0 20.0" xmlns="http://www.w3.org/2000/svg" xmlns:xlink="http://www.w3.org/1999/xlink"><defs><clipPath id="i0"><path d="M1440,0 L1440,1156 L0,1156 L0,0 L1440,0 Z"></path></clipPath><clipPath id="i1"><path d="M5,0 C5.4600525,0 5.83328246,0.373382578 5.83328246,0.833282461 L5.83328246,2.5 L14.1667175,2.5 L14.1667175,0.833282461 C14.1667175,0.373382578 14.5399475,0 15,0 L15.8332825,0 C16.293335,0 16.6667175,0.373382578 16.6667175,0.833282461 L16.6667175,2.5 L17.5,2.5 C18.8783264,2.5 20,3.62167359 20,5 L20,17.5 C20,18.8783264 18.8783264,20 17.5,20 L2.5,20 C1.12167359,20 0,18.8783264 0,17.5 L0,5 C0,3.62167359 1.12167359,2.5 2.5,2.5 L3.33328246,2.5 L3.33328246,0.833282461 C3.33328246,0.373382578 3.70666504,0 4.16671754,0 Z M18.3332825,8.36669922 L1.66671754,8.36669922 L1.66671754,17.5 C1.66671754,17.959137 2.04086305,18.3332825 2.5,18.3332825 L17.5,18.3332825 C17.959137,18.3332825 18.3332825,17.959137 18.3332825,17.5 L18.3332825,8.36669922 Z"></path></clipPath></defs><g transform="translate(-1112.0 -84.0)"><g clip-path="url(#i0)"><g transform="translate(0.0 60.0)"><g transform="translate(1096.0 15.0)"><g transform="translate(14.0 7.0)"><g transform="translate(2.0 2.0)"><g clip-path="url(#i1)"><polygon points="0,0 20,0 20,20 0,20 0,0" stroke="none" fill="#C42521"></polygon></g></g></g></g></g></g></g></svg>