<?xml version="1.0" encoding="UTF-8"?><svg version="1.1" width="28px" height="28px" viewBox="0 0 28.0 28.0" xmlns="http://www.w3.org/2000/svg" xmlns:xlink="http://www.w3.org/1999/xlink"><defs><clipPath id="i0"><path d="M1440,0 L1440,1247 L0,1247 L0,0 L1440,0 Z"></path></clipPath><clipPath id="i1"><path d="M25.6822175,1.26166279 L26.6281416,4.85075557 C26.665916,4.99638255 26.6448145,5.15201324 26.5658268,5.28096736 C26.4879854,5.40986938 26.3601775,5.50104906 26.2134564,5.53548893 L6.59,9.993 L26.0901815,9.99381063 C26.366284,9.99381063 26.5954988,10.1954574 26.6385807,10.4594677 L26.6458565,10.5495899 L26.6458565,23.8878747 C26.6458565,25.419537 25.3998731,26.6666667 23.8670645,26.6666667 L3.85963729,26.6666667 C2.32688079,26.6666667 1.08084532,25.419537 1.08084532,23.8878747 L1.08,11.453 L0.0515569692,7.38502969 C-0.0456861611,6.99988671 -0.00422789965,6.60453161 0.166263145,6.25407895 L0.247202514,6.10679476 C0.48395707,5.72217281 0.856334889,5.45431296 1.29649829,5.35427582 L23.6892902,0.0412097317 C24.5729516,-0.158864541 25.4643762,0.389099293 25.6822175,1.26166279 Z M25.534,15.551 L2.192,15.551 L2.19240379,23.8878226 C2.19240379,24.8070701 2.94044189,25.5551082 3.85968939,25.5551082 L23.8671166,25.5551082 C24.7863641,25.5551082 25.5344022,24.8070701 25.5344022,23.8878226 L25.534,15.551 Z M5.182,11.105 L2.19240379,11.105317 L2.192,14.439 L3.515,14.439 L5.182,11.105 Z M10.74,11.105 L6.426,11.105 L4.759,14.439 L9.073,14.439 L10.74,11.105 Z M16.297,11.105 L11.983,11.105 L10.316,14.439 L14.63,14.439 L16.297,11.105 Z M21.855,11.105 L17.54,11.105 L15.873,14.439 L20.188,14.439 L21.855,11.105 Z M25.5344022,11.105317 L23.098,11.105 L21.431,14.439 L25.534,14.439 L25.5344022,11.105317 Z M2.6,6.185 L1.54883154,6.43577105 C1.39768168,6.47135718 1.27320839,6.56029644 1.19427284,6.6881043 C1.11643144,6.81705843 1.09199529,6.96820829 1.12867557,7.11492942 L1.84227381,9.93264209 L5.512,9.098 L2.6,6.185 Z M7.992,4.907 L3.871,5.884 L6.794,8.807 L10.949,7.863 L7.992,4.907 Z M13.387,3.627 L9.263,4.605 L12.231,7.571 L16.384,6.627 L13.387,3.627 Z M18.773,2.349 L14.657,3.325 L17.664,6.336 L21.815,5.393 L18.773,2.349 Z M24.0627101,1.10941878 C24.0226952,1.10941878 23.9815862,1.1138475 23.9415714,1.12385122 L20.043,2.048 L23.095,5.102 L25.4065423,4.57737283 L24.605151,1.53733805 C24.5417942,1.28057606 24.3117088,1.10941878 24.0627101,1.10941878 Z"></path></clipPath></defs><g transform="translate(-1101.0 -16.0)"><g clip-path="url(#i0)"><g transform="translate(1085.0 0.0)"><g transform="translate(14.0 14.0)"><g transform="translate(2.666666666666666 2.666666666666666)"><g clip-path="url(#i1)"><polygon points="0,-1.80411242e-16 26.6463513,-1.80411242e-16 26.6463513,26.6666667 0,26.6666667 0,-1.80411242e-16" stroke="none" fill="#FFFFFF"></polygon></g></g></g></g></g></g></svg>