<?xml version="1.0" encoding="UTF-8"?><svg version="1.1" width="28px" height="28px" viewBox="0 0 28.0 28.0" xmlns="http://www.w3.org/2000/svg" xmlns:xlink="http://www.w3.org/1999/xlink"><defs><clipPath id="i0"><path d="M1440,0 L1440,1156 L0,1156 L0,0 L1440,0 Z"></path></clipPath><clipPath id="i1"><path d="M9.19827227,0.228827902 L13.3333203,4.36392803 L17.4683684,0.228879985 C17.7734722,-0.0762238839 18.2681592,-0.0762238839 18.573211,0.228879985 C18.8783149,0.533983854 18.8783149,1.02861879 18.573211,1.33372266 L15.2194122,4.68752146 L24.3228929,4.68752146 C25.6152875,4.68752146 26.6666406,5.73892669 26.6666406,7.03126918 L26.6666406,22.7604205 C26.6666406,24.052763 25.6152354,25.1041682 24.3228929,25.1041682 L21.9791452,25.1041682 L21.9791452,25.8854174 C21.9791452,26.3168753 21.6293539,26.6666667 21.197896,26.6666667 C20.7664381,26.6666667 20.4166467,26.3168753 20.4166467,25.8854174 L20.4166467,25.1041682 L6.2499939,25.1041682 L6.2499939,25.8854174 C6.2499939,26.3168753 5.90020257,26.6666667 5.46874466,26.6666667 C5.03728675,26.6666667 4.68749542,26.3168753 4.68749542,25.8854174 L4.68749542,25.1041682 L2.34374771,25.1041682 C1.05140522,25.1041682 0,24.052763 0,22.7604205 L0,7.03126918 C0,5.73892669 1.05140522,4.68752146 2.34374771,4.68752146 L11.4472284,4.68752146 L8.0934296,1.33367057 C7.78832573,1.0285667 7.78832573,0.53393177 8.0934296,0.228827902 C8.39853346,-0.0762759672 8.89322048,-0.0762759672 9.19827227,0.228827902 Z M24.3228929,6.25001994 L2.34374771,6.25001994 C1.91296688,6.25001994 1.56249847,6.60048835 1.56249847,7.03126918 L1.56249847,22.7604205 C1.56249847,23.1912013 1.91296688,23.5416697 2.34374771,23.5416697 L24.3228929,23.5416697 C24.7536737,23.5416697 25.1041422,23.1912013 25.1041422,22.7604205 L25.1041422,7.03126918 C25.1041422,6.60048835 24.7536737,6.25001994 24.3228929,6.25001994 Z M19.6353975,7.81251841 C20.0668554,7.81251841 20.4166467,8.16230974 20.4166467,8.59376765 L20.4166467,21.197922 C20.4166467,21.6293799 20.0668554,21.9791712 19.6353975,21.9791712 L3.90624619,21.9791712 C3.47478827,21.9791712 3.12499695,21.6293799 3.12499695,21.197922 L3.12499695,8.59376765 C3.12499695,8.16230974 3.47478827,7.81251841 3.90624619,7.81251841 L19.6353975,7.81251841 Z M18.8541483,9.37501689 L4.68749542,9.37501689 L4.68749542,20.4166728 L18.8541483,20.4166728 L18.8541483,9.37501689 Z M22.7603944,15.6250108 C23.1918524,15.6250108 23.5416437,15.9748021 23.5416437,16.40626 L23.5416437,19.6354235 C23.5416437,20.0668814 23.1918524,20.4166728 22.7603944,20.4166728 C22.3289365,20.4166728 21.9791452,20.0668814 21.9791452,19.6354235 L21.9791452,16.40626 C21.9791452,15.9748021 22.3289365,15.6250108 22.7603944,15.6250108 Z M22.7603944,12.5000138 C23.1918665,12.5000138 23.5416437,12.849791 23.5416437,13.2812631 C23.5416437,13.7127351 23.1918665,14.0625123 22.7603944,14.0625123 C22.3289224,14.0625123 21.9791452,13.7127351 21.9791452,13.2812631 C21.9791452,12.849791 22.3289224,12.5000138 22.7603944,12.5000138 Z M22.7603944,9.37501689 C23.1918665,9.37501689 23.5416437,9.72479408 23.5416437,10.1562661 C23.5416437,10.5877382 23.1918665,10.9375154 22.7603944,10.9375154 C22.3289224,10.9375154 21.9791452,10.5877382 21.9791452,10.1562661 C21.9791452,9.72479408 22.3289224,9.37501689 22.7603944,9.37501689 Z"></path></clipPath></defs><g transform="translate(-1213.0 -16.0)"><g clip-path="url(#i0)"><g transform="translate(1085.0 0.0)"><g transform="translate(112.0 0.0)"><g transform="translate(14.0 14.0)"><g transform="translate(2.666666666666666 2.666666666666666)"><g clip-path="url(#i1)"><polygon points="0,-2.77555756e-17 26.6666406,-2.77555756e-17 26.6666406,26.6666667 0,26.6666667 0,-2.77555756e-17" stroke="none" fill="#FFFFFF"></polygon></g></g></g></g></g></g></g></svg>